<svg width="365" height="365" viewBox="0 0 365 365" fill="none" xmlns="http://www.w3.org/2000/svg">
<rect width="365" height="365" rx="60" fill="url(#paint0_linear_1322_47014)"/>
<rect width="365" height="365" rx="60" fill="black"/>
<g filter="url(#filter0_d_1322_47014)">
<mask id="path-2-inside-1_1322_47014" fill="white">
<path fill-rule="evenodd" clip-rule="evenodd" d="M216.472 220.649C260.392 220.649 296 183.913 296 138.603C296 93.2934 260.405 56.5581 216.472 56.5581V220.649ZM204.247 182.798H94.1699V296.359H204.247V182.798ZM204.26 113.413C204.26 144.775 179.616 170.2 149.215 170.2C118.814 170.2 94.1699 144.775 94.1699 113.413C94.1699 82.05 118.814 56.6255 149.215 56.6255C179.616 56.6255 204.26 82.05 204.26 113.413Z"/>
</mask>
<path fill-rule="evenodd" clip-rule="evenodd" d="M216.472 220.649C260.392 220.649 296 183.913 296 138.603C296 93.2934 260.405 56.5581 216.472 56.5581V220.649ZM204.247 182.798H94.1699V296.359H204.247V182.798ZM204.26 113.413C204.26 144.775 179.616 170.2 149.215 170.2C118.814 170.2 94.1699 144.775 94.1699 113.413C94.1699 82.05 118.814 56.6255 149.215 56.6255C179.616 56.6255 204.26 82.05 204.26 113.413Z" fill="url(#paint1_linear_1322_47014)"/>
<path d="M216.472 220.649H214.472V222.649H216.472V220.649ZM216.472 56.5581V54.5581H214.472V56.5581H216.472ZM94.1699 182.798V180.798H92.1699V182.798H94.1699ZM204.247 182.798H206.247V180.798H204.247V182.798ZM94.1699 296.359H92.1699V298.359H94.1699V296.359ZM204.247 296.359V298.359H206.247V296.359H204.247ZM294 138.603C294 182.868 259.229 218.649 216.472 218.649V222.649C261.555 222.649 298 184.959 298 138.603H294ZM216.472 58.5581C259.242 58.5581 294 94.3385 294 138.603H298C298 92.2482 261.568 54.5581 216.472 54.5581V58.5581ZM218.472 220.649V56.5581H214.472V220.649H218.472ZM94.1699 184.798H204.247V180.798H94.1699V184.798ZM96.1699 296.359V182.798H92.1699V296.359H96.1699ZM204.247 294.359H94.1699V298.359H204.247V294.359ZM202.247 182.798V296.359H206.247V182.798H202.247ZM149.215 172.2C180.778 172.2 206.26 145.821 206.26 113.413H202.26C202.26 143.73 178.453 168.2 149.215 168.2V172.2ZM92.1699 113.413C92.1699 145.821 117.652 172.2 149.215 172.2V168.2C119.977 168.2 96.1699 143.73 96.1699 113.413H92.1699ZM149.215 54.6255C117.652 54.6255 92.1699 81.0047 92.1699 113.413H96.1699C96.1699 83.0954 119.977 58.6255 149.215 58.6255V54.6255ZM206.26 113.413C206.26 81.0047 180.778 54.6255 149.215 54.6255V58.6255C178.453 58.6255 202.26 83.0954 202.26 113.413H206.26Z" fill="white" mask="url(#path-2-inside-1_1322_47014)"/>
</g>
<defs>
<filter id="filter0_d_1322_47014" x="74.1699" y="37.5581" width="241.83" height="279.801" filterUnits="userSpaceOnUse" color-interpolation-filters="sRGB">
<feFlood flood-opacity="0" result="BackgroundImageFix"/>
<feColorMatrix in="SourceAlpha" type="matrix" values="0 0 0 0 0 0 0 0 0 0 0 0 0 0 0 0 0 0 127 0" result="hardAlpha"/>
<feOffset dy="1"/>
<feGaussianBlur stdDeviation="10"/>
<feComposite in2="hardAlpha" operator="out"/>
<feColorMatrix type="matrix" values="0 0 0 0 0 0 0 0 0 0 0 0 0 0 0 0 0 0 0.25 0"/>
<feBlend mode="normal" in2="BackgroundImageFix" result="effect1_dropShadow_1322_47014"/>
<feBlend mode="normal" in="SourceGraphic" in2="effect1_dropShadow_1322_47014" result="shape"/>
</filter>
<linearGradient id="paint0_linear_1322_47014" x1="182.5" y1="0" x2="182.5" y2="365" gradientUnits="userSpaceOnUse">
<stop stop-color="#7B61FF"/>
<stop offset="1" stop-color="#00DDBF"/>
</linearGradient>
<linearGradient id="paint1_linear_1322_47014" x1="195.01" y1="85.1651" x2="94.0206" y2="315.246" gradientUnits="userSpaceOnUse">
<stop stop-color="white"/>
<stop offset="1" stop-color="#C8C8C8"/>
</linearGradient>
</defs>
</svg>
